<svg width="44" height="46" viewBox="0 0 44 46" fill="none" xmlns="http://www.w3.org/2000/svg">
<g filter="url(#filter0_d_7_128)">
<path d="M18.17 26.3719L21 29.2594L31 19.0562L21 8.85311L18.17 11.7406L23.34 17.0156H4V21.0969H23.34L18.17 26.3719ZM36 0.690613H8C5.79 0.690613 4 2.51697 4 4.77186V12.9344H8V4.77186H36V33.3406H8V25.1781H4V33.3406C4 35.5955 5.79 37.4219 8 37.4219H36C38.21 37.4219 40 35.5955 40 33.3406V4.77186C40 2.51697 38.21 0.690613 36 0.690613Z" fill="#F0F0F0"/>
</g>
<defs>
<filter id="filter0_d_7_128" x="0" y="0.690613" width="44" height="44.7313" filterUnits="userSpaceOnUse" color-interpolation-filters="sRGB">
<feFlood flood-opacity="0" result="BackgroundImageFix"/>
<feColorMatrix in="SourceAlpha" type="matrix" values="0 0 0 0 0 0 0 0 0 0 0 0 0 0 0 0 0 0 127 0" result="hardAlpha"/>
<feOffset dy="4"/>
<feGaussianBlur stdDeviation="2"/>
<feComposite in2="hardAlpha" operator="out"/>
<feColorMatrix type="matrix" values="0 0 0 0 0 0 0 0 0 0 0 0 0 0 0 0 0 0 0.25 0"/>
<feBlend mode="normal" in2="BackgroundImageFix" result="effect1_dropShadow_7_128"/>
<feBlend mode="normal" in="SourceGraphic" in2="effect1_dropShadow_7_128" result="shape"/>
</filter>
</defs>
</svg>
