<svg width="37" height="32" viewBox="0 0 37 32" fill="none" xmlns="http://www.w3.org/2000/svg">
<g clip-path="url(#clip0_44_31)">
<mask id="mask0_44_31" style="mask-type:luminance" maskUnits="userSpaceOnUse" x="24" y="0" width="13" height="11">
<path d="M24.498 0.255615H36.7037V10.8125H24.498V0.255615Z" fill="white"/>
</mask>
<g mask="url(#mask0_44_31)">
<path d="M35.1869 0.255615H26.085C25.5433 0.255615 25.0422 0.505615 24.7712 0.911615C24.5005 1.31762 24.5005 1.81762 24.7712 2.22362C25.0422 2.62962 25.5433 2.87962 26.085 2.87962H33.67V9.43961C33.67 9.90836 33.9593 10.3415 34.4285 10.5759C34.8979 10.8102 35.4764 10.8102 35.9455 10.5759C36.4149 10.3415 36.704 9.90836 36.704 9.43961V1.56774C36.704 1.21984 36.5442 0.886116 36.2597 0.639991C35.9751 0.393866 35.5895 0.255715 35.187 0.255715L35.1869 0.255615Z" fill="black"/>
</g>
<mask id="mask1_44_31" style="mask-type:luminance" maskUnits="userSpaceOnUse" x="0" y="21" width="13" height="11">
<path d="M0.295593 21.1875H12.502V31.7438H0.295593V21.1875Z" fill="white"/>
</mask>
<g mask="url(#mask1_44_31)">
<path d="M10.915 29.12H3.32996V22.56C3.32996 22.0915 3.0409 21.6581 2.57146 21.4237C2.10202 21.1896 1.5239 21.1896 1.05446 21.4237C0.585015 21.6581 0.295959 22.0915 0.295959 22.56V30.4319C0.295959 30.78 0.455732 31.1135 0.740278 31.3596C1.02482 31.6057 1.41071 31.7439 1.81299 31.7439H10.9148C11.4568 31.7439 11.9576 31.4939 12.2286 31.0879C12.4996 30.6821 12.4996 30.1819 12.2286 29.7759C11.9576 29.3701 11.4568 29.1199 10.9148 29.1199L10.915 29.12Z" fill="black"/>
</g>
<mask id="mask2_44_31" style="mask-type:luminance" maskUnits="userSpaceOnUse" x="24" y="21" width="13" height="11">
<path d="M24.498 21.1875H36.7037V31.7438H24.498V21.1875Z" fill="white"/>
</mask>
<g mask="url(#mask2_44_31)">
<path d="M35.1868 21.2475C34.7846 21.2475 34.3987 21.3859 34.1141 21.6318C33.8296 21.8779 33.6698 22.2116 33.6698 22.5595V29.1195H26.0848C25.5431 29.1195 25.042 29.3698 24.771 29.7755C24.5003 30.1815 24.5003 30.6818 24.771 31.0875C25.042 31.4935 25.5431 31.7435 26.0848 31.7435H35.1867C35.5892 31.7435 35.9748 31.6053 36.2594 31.3592C36.544 31.1132 36.7037 30.7797 36.7037 30.4315V22.5596C36.7037 22.2117 36.5439 21.878 36.2594 21.6319C35.9748 21.386 35.5892 21.2476 35.1867 21.2476L35.1868 21.2475Z" fill="black"/>
</g>
<mask id="mask3_44_31" style="mask-type:luminance" maskUnits="userSpaceOnUse" x="0" y="0" width="13" height="11">
<path d="M0.295593 0.255615H12.502V10.8125H0.295593V0.255615Z" fill="white"/>
</mask>
<g mask="url(#mask3_44_31)">
<path d="M1.81324 10.7521C2.2155 10.7521 2.60137 10.6139 2.88595 10.3678C3.17054 10.1217 3.33027 9.78799 3.33027 9.44007V2.88007H10.9153C11.4573 2.88007 11.9581 2.63007 12.2291 2.22407C12.5001 1.81807 12.5001 1.31807 12.2291 0.912073C11.9581 0.506073 11.4573 0.256073 10.9153 0.256073H1.81342C1.41116 0.256073 1.02529 0.394255 0.740704 0.640348C0.456122 0.886442 0.296387 1.22018 0.296387 1.5681V9.43997C0.296387 9.78787 0.456158 10.1216 0.740704 10.3677C1.02525 10.6138 1.41113 10.752 1.81342 10.752L1.81324 10.7521Z" fill="black"/>
</g>
<path d="M4.84686 16C4.84686 16.3479 5.00663 16.6816 5.29118 16.9277C5.57573 17.1736 5.96161 17.312 6.36389 17.312H30.6357C31.1777 17.312 31.6785 17.0618 31.9495 16.656C32.2205 16.25 32.2205 15.7498 31.9495 15.344C31.6785 14.938 31.1777 14.688 30.6357 14.688H6.36389C5.96163 14.688 5.57576 14.8262 5.29118 15.0723C5.00663 15.3181 4.84686 15.6518 4.84686 16Z" fill="black"/>
</g>
<defs>
<clipPath id="clip0_44_31">
<rect width="37" height="32" fill="white"/>
</clipPath>
</defs>
</svg>
