<svg width="46" height="31" viewBox="0 0 46 31" fill="none" xmlns="http://www.w3.org/2000/svg">
<path fill-rule="evenodd" clip-rule="evenodd" d="M28.9174 7.46296C28.9174 11.5808 32.5803 14.9259 37.0911 14.9259C41.6047 14.9259 45.2658 11.5841 45.2658 7.46296C45.2658 3.34409 41.6023 0 37.0911 0C32.5765 0 28.9174 3.34179 28.9174 7.46296ZM37.09 12.5092C34.0339 12.5092 31.5632 10.2537 31.5632 7.46296C31.5632 4.67578 34.0374 2.41672 37.09 2.41672C40.1454 2.41672 42.6175 4.67225 42.6175 7.46296C42.6178 10.2501 40.1436 12.5092 37.09 12.5092ZM28.9237 13.7217C28.2492 12.9876 27.7016 12.1737 27.2932 11.305H14.3656V13.7217H28.9237ZM17.5764 24.7385C18.6149 24.7385 19.4569 25.5063 19.4569 26.4544C19.4569 27.4026 18.6149 28.1713 17.5764 28.1713C16.5379 28.1713 15.6971 27.4026 15.6971 26.4544C15.6971 25.5072 16.539 24.7385 17.5764 24.7385ZM28.6865 26.4544C28.6865 25.5062 29.5284 24.7385 30.5659 24.7385C31.6061 24.7385 32.4452 25.5056 32.4452 26.4544C32.4452 27.4067 31.6089 28.1713 30.5659 28.1713C29.5267 28.1713 28.6865 27.4033 28.6865 26.4544ZM9.89119 8.65364L26.5087 8.66197C26.4553 8.26688 26.428 7.86697 26.428 7.46415C26.428 7.05752 26.456 6.65409 26.5094 6.25485L9.18482 6.24652L7.49495 0.488906H0V2.90497H5.4678L11.6046 23.818H14.0897C13.4397 24.5339 13.0494 25.4529 13.0494 26.4539C13.0494 28.736 15.0755 30.5869 17.576 30.5869C20.0766 30.5869 22.1034 28.7361 22.1034 26.4539C22.1034 25.4529 21.7124 24.5339 21.0624 23.818H27.0809C26.4309 24.5339 26.0407 25.4529 26.0407 26.4539C26.0407 28.7319 28.073 30.5869 30.5673 30.5869C33.0639 30.5869 35.0939 28.7338 35.0939 26.4539C35.0939 25.4529 34.7029 24.5339 34.0529 23.818H36.538L38.5061 17.1129C38.0401 17.17 37.5674 17.1988 37.0911 17.1988C36.6457 17.1988 36.2039 17.1732 35.7677 17.1235L34.512 21.401H13.6332L9.89119 8.65364ZM32.8759 16.3556H15.3735V18.7717H32.8759V16.3556ZM35.9106 11.0861L41.192 5.24557L39.3327 3.83947L35.5649 8.00543L34.4043 7.15403L32.8934 8.86996L35.9106 11.0861Z" fill="#FFA500"/>
</svg>
