<svg width="25" height="30" viewBox="0 0 25 30" fill="none" xmlns="http://www.w3.org/2000/svg">
<path d="M9.13822 20.3247C11.3877 20.1507 13.6475 20.1507 15.897 20.3247C17.122 20.3933 18.3411 20.5404 19.5468 20.7651C22.1557 21.2722 23.8589 22.0996 24.5888 23.4342C25.1371 24.4757 25.1371 25.7156 24.5888 26.7571C23.8589 28.0916 22.2232 28.9724 19.5197 29.4262C18.315 29.6594 17.0956 29.811 15.87 29.8799C14.7345 30 13.599 30 12.45 30H10.3818C9.94928 29.9466 9.53024 29.9199 9.12471 29.9199C7.89903 29.8594 6.67932 29.7122 5.47496 29.4795C2.86606 28.9991 1.16285 28.145 0.432898 26.8105C0.151111 26.2935 0.00255325 25.7161 0.00016284 25.129C-0.00553798 24.5384 0.138527 23.9557 0.419381 23.4342C1.13581 22.0996 2.83903 21.2322 5.47496 20.7651C6.68463 20.5372 7.9085 20.39 9.13822 20.3247ZM12.5041 0C17.0357 0 20.7093 3.62673 20.7093 8.10053C20.7093 12.5743 17.0357 16.2011 12.5041 16.2011C7.97251 16.2011 4.29893 12.5743 4.29893 8.10053C4.29893 3.62673 7.97251 0 12.5041 0Z" fill="#FFA500"/>
</svg>
